<svg width="22" height="22" viewBox="0 0 22 22" fill="none" xmlns="http://www.w3.org/2000/svg">
<path fill-rule="evenodd" clip-rule="evenodd" d="M15.5 2H6.5C4.02522 2 2 4.02432 2 6.5V15.5C2 17.9748 4.02522 20 6.5 20H15.5C17.9748 20 20 17.9748 20 15.5V6.5C20 4.02432 17.9748 2 15.5 2ZM11 14.7499C8.92865 14.7499 7.24993 13.0704 7.24993 11C7.24993 8.92865 8.92865 7.24993 11 7.24993C13.0704 7.24993 14.7501 8.92865 14.7501 11C14.7501 13.0704 13.0704 14.7499 11 14.7499ZM14.7501 6.12492C14.7501 6.74615 15.2532 7.24992 15.8751 7.24992C16.497 7.24992 17.0001 6.74615 17.0001 6.12492C17.0001 5.5037 16.497 4.99992 15.8751 4.99992C15.2532 4.99992 14.7501 5.5037 14.7501 6.12492Z" fill="#141414"/>
</svg>
