<svg width="186" height="219" viewBox="0 0 186 219" fill="none" xmlns="http://www.w3.org/2000/svg">
<path d="M147.047 219C158.084 219 167.173 215.089 174.314 207.268C182.105 199.446 186 191.299 186 182.826C186 174.353 171.393 113.411 142.178 0H129.518L149.969 139.808H147.047C136.66 139.808 127.246 143.719 118.806 151.54C111.016 159.362 107.12 168.487 107.12 178.915C107.12 189.995 111.016 199.446 118.806 207.268C126.597 215.089 136.01 219 147.047 219ZM39.9267 219C50.9633 219 60.0524 215.089 67.1937 207.268C74.9843 199.446 78.8796 191.299 78.8796 182.826C78.8796 174.353 64.2722 113.411 35.0576 0H22.3979L42.8482 139.808H39.9267C29.5393 139.808 20.1257 143.719 11.6859 151.54C3.89529 159.362 0 168.487 0 178.915C0 189.995 3.89529 199.446 11.6859 207.268C19.4764 215.089 28.8901 219 39.9267 219Z" fill="white" fill-opacity="0.1"/>
</svg>
